<svg enable-background="new 0 0 30 30" height="30px" id="Layer_1" version="1.1" viewBox="0 0 30 30" width="30px" fill="currentColor" xml:space="preserve" xmlns="http://www.w3.org/2000/svg" xmlns:xlink="http://www.w3.org/1999/xlink"><g><g><path d="M4.071,9.781H3.995c-0.985,0-1.788,0.808-1.788,1.788v7.781c0,0.994,0.803,1.797,1.788,1.797h0.077    c0.984,0,1.789-0.807,1.789-1.797v-7.781C5.858,10.588,5.055,9.781,4.071,9.781z"/><path d="M6.717,22.361c0,0.906,0.737,1.641,1.644,1.641h1.757v4.205c0,0.986,0.806,1.793,1.787,1.793h0.076    c0.987,0,1.792-0.807,1.792-1.793v-4.205h2.454v4.205c0,0.986,0.808,1.793,1.791,1.793h0.076c0.983,0,1.788-0.807,1.788-1.793    v-4.205h1.758c0.903,0,1.641-0.734,1.641-1.641V10.068H6.717V22.361z"/><path d="M19.121,2.613L20.52,0.46c0.091-0.138,0.051-0.322-0.087-0.41c-0.14-0.092-0.32-0.055-0.409,0.084l-1.445,2.23    c-1.086-0.441-2.299-0.696-3.577-0.696c-1.28,0-2.49,0.255-3.578,0.696l-1.443-2.23C9.891-0.004,9.707-0.042,9.567,0.05    C9.43,0.138,9.39,0.323,9.479,0.46l1.399,2.152C8.36,3.845,6.662,6.167,6.662,8.837c0,0.164,0.01,0.327,0.024,0.486h16.631    c0.014-0.159,0.021-0.322,0.021-0.486C23.339,6.167,21.64,3.845,19.121,2.613z M11.145,6.469c-0.441,0-0.801-0.36-0.801-0.796    c0-0.449,0.359-0.803,0.801-0.803c0.444,0,0.804,0.354,0.804,0.803C11.948,6.109,11.586,6.469,11.145,6.469z M18.854,6.469    c-0.441,0-0.803-0.36-0.803-0.796c0-0.449,0.361-0.803,0.803-0.803c0.442,0,0.8,0.354,0.8,0.803    C19.654,6.109,19.297,6.469,18.854,6.469z"/><path d="M26.003,9.781H25.93c-0.984,0-1.79,0.808-1.79,1.788v7.781c0,0.994,0.808,1.797,1.79,1.797h0.075    c0.985,0,1.788-0.807,1.788-1.797v-7.781C27.793,10.588,26.989,9.781,26.003,9.781z"/></g></g></svg>